# xmcd
#
# Track frame offsets:
#	150
#	25545
#	44512
#	66015
#	86307
#	109815
#	135467
#	155436
#	177015
#	195226
#	217153
#	238838
#	267925
#	287144
#	307628
#
# Disc length: 4546 seconds
#
# Revision: 0
# Processed by: cddbd v1.4PL0 Copyright (c) Steve Scherf et al.
# Submitted via: dBpowerAMP V4.0
#
DISCID=c411c00f
DTITLE=Lance 'Dr. Harmonica' Wakely - Dedicated To The Blues
DYEAR=2000
DGENRE=Blues
TTITLE0=High Tech World
TTITLE1=I Remember When
TTITLE2=The Garbage Man
TTITLE3=One Man Big Time Band
TTITLE4=Keep On Loving You
TTITLE5=The Buskers Boogie
TTITLE6=Dedicated To The Blues
TTITLE7=Champagne And Caviar
TTITLE8=Do What I Tell You
TTITLE9=I Saw Myself On MTV
TTITLE10=I'm A Viagra Man
TTITLE11=I'm Tired Of Singing Your Blues
TTITLE12=I Can't Live Without You Now
TTITLE13=Boogie Beat
TTITLE14=Back To My Roots
EXTD=
EXTT0=
EXTT1=
EXTT2=
EXTT3=
EXTT4=
EXTT5=
EXTT6=
EXTT7=
EXTT8=
EXTT9=
EXTT10=
EXTT11=
EXTT12=
EXTT13=
EXTT14=
PLAYORDER=
